<?xml version="1.0" encoding="iso-8859-1"?>
<!-- Generator: Adobe Illustrator 19.0.0, SVG Export Plug-In . SVG Version: 6.00 Build 0)  -->
<svg version="1.1" id="Layer_1" xmlns="http://www.w3.org/2000/svg" xmlns:xlink="http://www.w3.org/1999/xlink" x="0px" y="0px"
	 viewBox="0 0 511.999 511.999" style="enable-background:new 0 0 511.999 511.999;" xml:space="preserve">
<path style="fill:#F29A36;" d="M506.435,411.818c0,18.365-15.026,33.391-33.391,33.391H128c-1.891,0-3.785-0.223-5.565-0.557v-65.67
	c1.78-0.445,3.674-0.557,5.565-0.557h345.043C491.409,378.427,506.435,393.452,506.435,411.818z"/>
<path style="fill:#5C5F66;" d="M261.565,111.312c-9.217,0-16.696-7.473-16.696-16.696V16.703c0-9.223,7.479-16.696,16.696-16.696
	c9.217,0,16.696,7.473,16.696,16.696v77.913C278.261,103.839,270.782,111.312,261.565,111.312z"/>
<path style="fill:#53565C;" d="M278.261,94.616V16.703c0-9.223-7.479-16.696-16.696-16.696v111.304
	C270.782,111.312,278.261,103.839,278.261,94.616z"/>
<g>
	<path style="fill:#5AF1FF;" d="M343.708,292.277c-25.71,12.911-53.871,19.367-82.143,19.367s-56.432-6.456-82.143-19.367
		c-8.237-4.118-11.575-14.136-7.457-22.372c4.119-8.237,14.136-11.576,22.372-7.457c21.037,10.463,44.077,15.805,67.228,15.805
		s46.191-5.343,67.228-15.805c8.237-4.118,18.253-0.778,22.372,7.457C355.282,278.142,351.944,288.159,343.708,292.277z"/>
	<path style="fill:#5AF1FF;" d="M313.878,232.507c-16.362,8.125-34.282,12.243-52.313,12.243c-18.031,0-35.951-4.118-52.313-12.243
		c-8.237-4.119-11.576-14.136-7.457-22.372c4.118-8.237,14.136-11.576,22.372-7.457c11.797,5.899,24.598,8.793,37.398,8.793
		c12.8,0,25.6-2.894,37.398-8.793c8.126-4.118,18.254-0.778,22.372,7.457C325.454,218.37,322.114,228.388,313.878,232.507z"/>
</g>
<path style="fill:#54CCFF;" d="M261.565,178.079c-27.619,0-50.087-22.468-50.087-50.087s22.468-50.087,50.087-50.087
	s50.087,22.468,50.087,50.087S289.184,178.079,261.565,178.079z"/>
<path style="fill:#5AF1FF;" d="M261.565,111.297c-9.206,0-16.696,7.49-16.696,16.696c0,9.206,7.49,16.696,16.696,16.696
	s16.696-7.49,16.696-16.696S270.771,111.297,261.565,111.297z"/>
<path style="fill:#4BB8E6;" d="M311.652,127.992c0-27.619-22.468-50.087-50.087-50.087v100.174
	C289.184,178.079,311.652,155.611,311.652,127.992z"/>
<g>
	<path style="fill:#51DAE6;" d="M278.261,127.992c0-9.206-7.49-16.696-16.696-16.696v33.391
		C270.771,144.688,278.261,137.198,278.261,127.992z"/>
	<path style="fill:#51DAE6;" d="M313.878,232.507c-16.362,8.125-34.282,12.243-52.313,12.243v-33.28c12.8,0,25.6-2.894,37.398-8.793
		c8.126-4.118,18.254-0.778,22.372,7.457C325.454,218.37,322.114,228.388,313.878,232.507z"/>
	<path style="fill:#51DAE6;" d="M343.708,292.277c-25.71,12.911-53.871,19.367-82.143,19.367v-33.391
		c23.152,0,46.191-5.343,67.228-15.805c8.237-4.118,18.253-0.778,22.372,7.457C355.282,278.142,351.944,288.159,343.708,292.277z"/>
</g>
<path style="fill:#5C5F66;" d="M33.391,511.992C14.978,511.992,0,497.014,0,478.601s14.978-33.391,33.391-33.391h445.217
	c18.413,0,33.391,14.978,33.391,33.391s-14.978,33.391-33.391,33.391H33.391z"/>
<path style="fill:#53565C;" d="M478.609,445.21H261.565v66.783h217.043c18.413,0,33.391-14.978,33.391-33.391
	S497.022,445.21,478.609,445.21z"/>
<path style="fill:#E7812E;" d="M473.043,378.427H261.565v66.783h211.478c18.413,0,33.391-14.978,33.391-33.391
	C506.435,393.405,491.457,378.427,473.043,378.427z"/>
<g>
	<path style="fill:#F9BC35;" d="M50.087,445.21C22.468,445.21,0,422.742,0,395.122c0-27.619,22.468-50.087,50.087-50.087
		s50.087,22.468,50.087,50.087S77.706,445.21,50.087,445.21z"/>
	<path style="fill:#F9BC35;" d="M285.162,435.415l-66.783,66.783c-13.023,13.023-34.169,13.023-47.193,0l-66.783-66.783
		c-13.023-13.023-13.023-34.17,0-47.193c5.01-5.009,11.353-8.237,18.031-9.238c1.78-0.445,3.674-0.557,5.565-0.557
		c8.57,0,17.141,3.339,23.597,9.795l43.186,43.075l43.186-43.075c5.01-5.009,11.353-8.237,18.031-9.238
		c10.239-1.781,21.258,1.336,29.162,9.238C298.184,401.243,298.184,422.392,285.162,435.415z"/>
</g>
<path style="fill:#F39E31;" d="M285.162,435.415L256,464.577v-85.593c10.239-1.781,21.258,1.336,29.162,9.238
	C298.184,401.243,298.184,422.392,285.162,435.415z"/>
<g>
</g>
<g>
</g>
<g>
</g>
<g>
</g>
<g>
</g>
<g>
</g>
<g>
</g>
<g>
</g>
<g>
</g>
<g>
</g>
<g>
</g>
<g>
</g>
<g>
</g>
<g>
</g>
<g>
</g>
</svg>
