<?xml version="1.0" encoding="iso-8859-1"?>
<!-- Generator: Adobe Illustrator 19.0.0, SVG Export Plug-In . SVG Version: 6.00 Build 0)  -->
<svg version="1.1" id="Layer_1" xmlns="http://www.w3.org/2000/svg" xmlns:xlink="http://www.w3.org/1999/xlink" x="0px" y="0px"
	 viewBox="0 0 512 512" style="enable-background:new 0 0 512 512;" xml:space="preserve">
<circle style="fill:#FC8A5E;" cx="256.006" cy="256.006" r="246.522"/>
<path style="fill:#CE5F45;" d="M256,512C114.841,512,0,397.159,0,256S114.841,0,256,0s256,114.841,256,256S397.159,512,256,512z
	 M256,18.969C125.301,18.969,18.969,125.301,18.969,256S125.301,493.031,256,493.031S493.031,386.699,493.031,256
	S386.699,18.969,256,18.969z"/>
<circle style="fill:#EA7653;" cx="256.006" cy="256.006" r="190.007"/>
<polygon style="fill:#E0B394;" points="264.097,217.441 237.035,216.758 198.464,299.969 248.416,311.35 276.87,233.577 "/>
<path style="fill:#F7CBA4;" d="M402.268,216.758c-12.659,0-24.015,7.79-28.504,19.627c-6.74,17.806-19.285,42.111-38.76,47.739
	c0,0-3.731-59.689-70.906-66.681c-4.451,51.52-48.573,65.658-48.573,65.658c21.283-14.379,35.282-38.722,35.282-66.341
	c0-44.653-36.598-80.77-81.44-79.986c-4.54,0.076-8.966,0.556-13.278,1.391c-37.875,7.309-66.05,42.326-65.254,82.149
	c1.606,79.632,57.135,146.024,131.557,164.171c13.152,3.212,26.898,4.907,41.036,4.907c5.956,0,11.837-0.303,17.629-0.885
	c34.916-3.541,67.644-18.628,93.871-41.947l4.451-3.958c25.532-22.7,44.071-52.456,51.988-85.702c0.24-0.974,0.455-1.96,0.67-2.947
	C436.235,234.867,421.806,216.758,402.268,216.758z"/>
<path style="fill:#E0B394;" d="M222.391,384.482C147.969,366.335,92.44,299.944,90.834,220.312
	c-0.797-39.822,27.379-74.839,65.254-82.149c-27.872,15.023-46.588,45.222-46.006,79.063
	C111.358,292.306,157.251,356.521,222.391,384.482z"/>
<path style="fill:#CE5F45;" d="M322.272,245.054c-3.149,5.755-10.845,7.094-15.87,2.877l-5.64-4.733l7.265,6.097l-0.134-0.111
	c-3.886-3.236-4.862-8.759-2.432-13.192c1.62-2.954,3.316-6.652,4.484-10.783c3.574-12.642,0.754-23.346-8.625-32.723
	c-19.641-19.642-27.128-48.404-18.205-69.945c4.367-10.539,16.528-28.222,48.931-28.222c22.435,0,38.244,10.638,52.191,20.024
	c21.626,14.554,34.682,23.337,65.737-7.719l13.414,13.412c-42.105,42.102-67.412,25.069-89.743,10.043
	c-12.832-8.636-24.953-16.791-41.6-16.791c-11.207,0-25.752,2.864-31.406,16.512c-5.97,14.414-0.043,35.136,14.095,49.273
	C337.137,201.474,331.546,228.109,322.272,245.054z"/>
<path style="fill:#E0B394;" d="M373.764,236.383c0,42.01-38.76,61.055-38.76,61.055v-13.316
	C354.478,278.496,367.023,254.189,373.764,236.383z"/>
<circle style="fill:#415E72;" cx="194.041" cy="205.119" r="10.749"/>
<g>
</g>
<g>
</g>
<g>
</g>
<g>
</g>
<g>
</g>
<g>
</g>
<g>
</g>
<g>
</g>
<g>
</g>
<g>
</g>
<g>
</g>
<g>
</g>
<g>
</g>
<g>
</g>
<g>
</g>
</svg>
