<?xml version="1.0" encoding="iso-8859-1"?>
<!-- Generator: Adobe Illustrator 21.0.0, SVG Export Plug-In . SVG Version: 6.00 Build 0)  -->
<svg version="1.1" id="Capa_1" xmlns="http://www.w3.org/2000/svg" xmlns:xlink="http://www.w3.org/1999/xlink" x="0px" y="0px"
	 viewBox="0 0 511.999 511.999" style="enable-background:new 0 0 511.999 511.999;" xml:space="preserve">
<linearGradient id="SVGID_1_" gradientUnits="userSpaceOnUse" x1="3.855318e-04" y1="257.9965" x2="512.0032" y2="257.9965" gradientTransform="matrix(1 0 0 -1 -3.855288e-04 513.9939)">
	<stop  offset="0" style="stop-color:#00F2FE"/>
	<stop  offset="0.021" style="stop-color:#03EFFE"/>
	<stop  offset="0.293" style="stop-color:#24D2FE"/>
	<stop  offset="0.554" style="stop-color:#3CBDFE"/>
	<stop  offset="0.796" style="stop-color:#4AB0FE"/>
	<stop  offset="1" style="stop-color:#4FACFE"/>
</linearGradient>
<path style="fill:url(#SVGID_1_);" d="M502.079,139.235c-3.17,1.851-6.641,2.731-10.065,2.731c-6.878,0-13.572-3.551-17.291-9.919
	c-10.223-17.511-21.995-33.723-34.988-48.186c-0.088-0.098-0.175-0.197-0.261-0.296c-1.456-1.685-3.341-3.751-3.953-4.333
	c-0.251-0.239-0.518-0.505-0.756-0.756c-0.582-0.612-2.649-2.497-4.336-3.955c-0.098-0.084-0.198-0.172-0.293-0.259
	c-15.072-13.54-32.076-25.593-51.984-36.849c-9.615-5.437-13.003-17.638-7.567-27.253c5.437-9.615,17.637-13.003,27.253-7.567
	c22.401,12.666,41.665,26.335,58.884,41.784c1.205,1.043,4.482,3.917,6.703,6.196c2.278,2.219,5.15,5.495,6.195,6.701
	c14.753,16.442,28.091,34.812,39.647,54.606C514.836,121.419,511.619,133.665,502.079,139.235z M405.555,299.517
	c0.47,8.759-4.822,16.802-13.052,19.836c-1.122,0.414-112.387,41.448-127.196,47.264c-7.154,2.809-15.287,1.271-20.919-3.96l-7-6.5
	c-0.226-0.21-0.447-0.425-0.663-0.645l-70.801-72.112c-3.842,5.813-8.132,11.516-12.855,17.083l-83.477,98.404
	c-0.043,0.052-0.086,0.103-0.13,0.152c-10.121,11.691-9.799,29.031,0.749,40.337c11.304,10.548,28.645,10.869,40.336,0.749
	c0.05-0.044,0.101-0.087,0.152-0.131l63.362-53.75c8.423-7.143,21.044-6.109,28.189,2.314c7.146,8.423,6.11,21.044-2.313,28.189
	l-63.285,53.686c-13.226,11.417-29.555,17.096-45.856,17.098c-10.585,0.001-21.157-2.401-30.868-7.174l-25.785,25.785
	c-3.905,3.904-9.023,5.857-14.142,5.857s-10.237-1.953-14.142-5.857c-7.811-7.811-7.811-20.475,0-28.285l25.033-25.033
	c-14.028-25.204-11.38-57.125,8.258-79.881l83.418-98.335c8.727-10.288,15.451-20.993,19.986-31.818
	c6.909-16.492,47.302-124.689,47.709-125.781c3.057-8.189,11.073-13.442,19.809-12.978c3.024,0.162,74.675,4.561,131.561,55.562
	c0.941,0.816,2.874,2.522,4.346,4.024c1.501,1.472,3.207,3.405,4.021,4.344C400.996,224.844,405.393,296.493,405.555,299.517z
	 M363.667,287.358c-3.749-20.768-14.379-60.334-43.557-92.811c-0.088-0.098-0.175-0.196-0.261-0.296
	c-0.63-0.729-1.513-1.705-1.844-2.04c-0.215-0.206-0.426-0.417-0.632-0.632c-0.333-0.33-1.31-1.213-2.043-1.847
	c-0.096-0.083-0.198-0.172-0.292-0.258c-32.754-29.425-72.178-39.955-92.858-43.622c-9.308,24.873-27.881,74.38-37.604,99.45
	l78.082,79.528C287.16,315.627,338.195,296.763,363.667,287.358z M408.028,110.967c-0.901-1.04-3.315-3.79-5.284-5.713
	c-1.922-1.968-4.669-4.379-5.711-5.282c-9.875-8.858-20.633-17.152-31.979-24.653c-9.213-6.091-21.622-3.56-27.713,5.654
	c-6.092,9.214-3.56,21.622,5.654,27.713c9.762,6.454,18.997,13.576,27.45,21.17c0.096,0.086,0.196,0.174,0.293,0.258
	c1.286,1.111,2.889,2.569,3.349,3.043c0.245,0.258,0.481,0.495,0.739,0.74c0.49,0.474,1.949,2.078,3.058,3.361
	c0.086,0.099,0.172,0.198,0.26,0.295c9.725,10.825,18.629,22.874,26.467,35.811c3.761,6.208,10.36,9.64,17.125,9.64
	c3.529,0,7.105-0.935,10.344-2.897c9.447-5.723,12.466-18.021,6.743-27.469C429.727,137.627,419.368,123.608,408.028,110.967z"/>
<g>
</g>
<g>
</g>
<g>
</g>
<g>
</g>
<g>
</g>
<g>
</g>
<g>
</g>
<g>
</g>
<g>
</g>
<g>
</g>
<g>
</g>
<g>
</g>
<g>
</g>
<g>
</g>
<g>
</g>
</svg>
