<?xml version="1.0" encoding="iso-8859-1"?>
<!-- Generator: Adobe Illustrator 19.0.0, SVG Export Plug-In . SVG Version: 6.00 Build 0)  -->
<svg version="1.1" id="Capa_1" xmlns="http://www.w3.org/2000/svg" xmlns:xlink="http://www.w3.org/1999/xlink" x="0px" y="0px"
	 viewBox="0 0 512 512" style="enable-background:new 0 0 512 512;" xml:space="preserve">
<path style="fill:#5D5360;" d="M495.484,445.935H16.516C7.395,445.935,0,438.541,0,429.419V82.581
	c0-9.122,7.395-16.516,16.516-16.516h478.968c9.122,0,16.516,7.395,16.516,16.516V429.42
	C512,438.541,504.605,445.935,495.484,445.935z"/>
<path style="fill:#9C969E;" d="M272.516,123.871h-33.032c-4.565,0-8.258-3.698-8.258-8.258c0-4.56,3.694-8.258,8.258-8.258h33.032
	c4.565,0,8.258,3.698,8.258,8.258C280.774,120.173,277.081,123.871,272.516,123.871z"/>
<path style="fill:#DBD9DC;" d="M462.452,123.871h-66.065c-4.565,0-8.258-3.698-8.258-8.258c0-4.56,3.694-8.258,8.258-8.258h66.065
	c4.565,0,8.258,3.698,8.258,8.258C470.71,120.173,467.016,123.871,462.452,123.871z"/>
<g>
	<path style="fill:#9C969E;" d="M462.452,165.161H429.42c-4.565,0-8.258-3.698-8.258-8.258s3.694-8.258,8.258-8.258h33.032
		c4.565,0,8.258,3.698,8.258,8.258S467.016,165.161,462.452,165.161z"/>
	<path style="fill:#9C969E;" d="M449.048,325.582L318.533,144.546c-2.482-3.443-7.213-4.521-10.828-2.297
		c-15.053,9.262-32.733,14.654-51.706,14.654s-36.652-5.393-51.706-14.654c-3.614-2.224-8.346-1.146-10.828,2.297L62.952,325.582
		c-2.701,3.747-1.852,9.047,1.958,11.659c54.392,37.277,120.169,59.146,191.09,59.146s136.698-21.869,191.09-59.146
		C450.9,334.63,451.749,329.329,449.048,325.582z"/>
</g>
<path style="fill:#AEA8AF;" d="M233.206,154.189c-5.862-1.395-11.537-3.273-16.945-5.66
	c-71.345,83.668-21.435,164.747-20.914,165.576l13.96-8.835c-1.903-3.028-45.75-75.024,23.879-151.048
	C233.195,154.212,233.197,154.199,233.206,154.189z"/>
<path style="fill:#9C969E;" d="M49.548,272.516c-4.565,0-8.258-3.698-8.258-8.258V148.645c0-4.56,3.694-8.258,8.258-8.258
	s8.258,3.698,8.258,8.258v115.613C57.806,268.819,54.113,272.516,49.548,272.516z"/>
<path style="fill:#DBD9DC;" d="M82.581,123.871H49.548c-4.565,0-8.258-3.698-8.258-8.258c0-4.56,3.694-8.258,8.258-8.258H82.58
	c4.565,0,8.258,3.698,8.258,8.258C90.839,120.173,87.145,123.871,82.581,123.871z"/>
<path style="fill:#C9C6CA;" d="M284.903,285.935c-42.294,36.46-66.735,1.059-103.934,30.026l1.394-12.042
	c0.532-4.573-1.032-9.065-4.282-12.323s-7.742-4.843-12.306-4.302l-8.387,0.956l1.177-9.944c0.532-4.528-2.702-8.637-7.234-9.173
	c-4.581-0.48-8.629,2.706-9.169,7.23l-1.452,12.262c-0.524,4.48,0.992,8.883,4.177,12.077c3.185,3.19,7.54,4.726,12.048,4.222
	l8.798-1l-3.323,28.742c-0.831,7.161,1.21,14.177,5.758,19.762c4.5,5.524,10.871,8.915,17.944,9.544
	c4.742,0.419,10.073,0.706,15.855,0.706c33.565-0.004,89.645-14.29,115.452-66.419L284.903,285.935z"/>
<circle style="fill:#DBD9DC;" cx="289.03" cy="256" r="49.548"/>
<path style="fill:#C9C6CA;" d="M281.839,265.165c-3.153,0-6.387-0.694-9.435-2.089c-6.444-2.94-11.048-8.524-12.323-14.935
	c-0.879-4.476,2.024-8.819,6.5-9.706c4.46-0.919,8.815,2.02,9.71,6.496c0.185,0.964,1.177,2.302,2.968,3.121
	c1.782,0.819,3.435,0.69,4.298,0.21c3.944-2.262,9-0.907,11.266,3.06c2.274,3.956,0.903,9.004-3.056,11.27
	C288.782,264.306,285.355,265.165,281.839,265.165z"/>
<path style="fill:#DBD9DC;" d="M208.516,327.742c16.548-10.798,34.697-6.393,48.855-9.986c3.36-0.853,3.756-5.484,0.605-6.928
	c-3.574-1.637-7.692-4.028-11.06-7.356c-22.299,2.259-41.343-6.669-65.947,12.49C180.301,328.258,193.289,337.678,208.516,327.742z"
	/>
<path style="fill:#C9C6CA;" d="M230.086,297.079c-1.315-1.157-2.242-2.734-2.621-4.44l-7.097-32.548
	c-0.968-4.456-5.379-7.286-9.823-6.31c-4.46,0.972-7.282,5.371-6.306,9.827l7.089,32.548c1.121,5.121,3.903,9.855,7.855,13.331
	l18.637,16.375l20.933-3.453L230.086,297.079z"/>
<g>
</g>
<g>
</g>
<g>
</g>
<g>
</g>
<g>
</g>
<g>
</g>
<g>
</g>
<g>
</g>
<g>
</g>
<g>
</g>
<g>
</g>
<g>
</g>
<g>
</g>
<g>
</g>
<g>
</g>
</svg>
