<?xml version="1.0" encoding="iso-8859-1"?>
<!-- Generator: Adobe Illustrator 19.0.0, SVG Export Plug-In . SVG Version: 6.00 Build 0)  -->
<svg version="1.1" id="Layer_1" xmlns="http://www.w3.org/2000/svg" xmlns:xlink="http://www.w3.org/1999/xlink" x="0px" y="0px"
	 viewBox="0 0 496 496" style="enable-background:new 0 0 496 496;" xml:space="preserve">
<path style="fill:#0D4972;" d="M411.6,146.4c0,35.2,1.6,61.6-33.6,61.6H100.4c-35.2,0-32.8-26.4-32.8-61.6V56.8
	c0-35.2,29.6-40.8,64.8-40.8H346c35.2,0,65.6,5.6,65.6,40.8V146.4z"/>
<path style="fill:#00233F;" d="M68.4,55.2c0-35.2,28.8-39.2,64-39.2H346c35.2,0,65.6,5.6,65.6,40.8v89.6c0,35.2,2.4,63.2-32.8,63.2"
	/>
<path style="fill:#04445B;" d="M179.6,424H86c-28,0-49.6-20.8-49.6-48S58,328,86,328h93.6c4.8,0,8,3.2,8,8s-3.2,8-8,8H86
	c-19.2,0-33.6,13.6-33.6,32s14.4,32,33.6,32h93.6c4.8,0,8,3.2,8,8S184.4,424,179.6,424z"/>
<path style="fill:#055072;" d="M309.2,328c0,13.6-11.2,24-24.8,24H186c-13.6,0-24.8-10.4-24.8-24l0,0c0-13.6,11.2-24,24.8-24h97.6
	C298,304,309.2,314.4,309.2,328L309.2,328z"/>
<path style="fill:#03445B;" d="M309.2,328L309.2,328c0,13.6-11.2,24-24.8,24H186c-13.6,0-24.8-10.4-24.8-24.8l0,0"/>
<path style="fill:#097D8C;" d="M267.6,299.2c0,17.6-14.4,32-32,32l0,0c-17.6,0-32-14.4-32-32V292c0-17.6,14.4-32,32-32l0,0
	c17.6,0,32,14.4,32,32V299.2z"/>
<path style="fill:#149CA3;" d="M435.6,221.6c0,40.8,3.2,74.4-37.6,74.4H80.4c-40.8,0-36.8-34.4-36.8-74.4V60c0-40,32.8-44,73.6-44
	h244c40.8,0,74.4,4,74.4,44V221.6z"/>
<path style="fill:#36C9B4;" d="M435.6,205.6c0,40.8,3.2,74.4-37.6,74.4H80.4c-40.8,0-36.8-33.6-36.8-74.4V44.8
	C43.6,4,76.4,0,117.2,0h244c40.8,0,74.4,4,74.4,44.8V205.6z"/>
<path style="fill:#22B2B2;" d="M115.6,0h245.6c40.8,0,74.4,4,74.4,44.8v161.6c0,40.8,3.2,74.4-37.6,74.4H83.6"/>
<g>
	<path style="fill:#149CA3;" d="M362,0.8c40.8,0,73.6,3.2,73.6,44v161.6c0,40.8,3.2,74.4-37.6,74.4"/>
	<path style="fill:#149CA3;" d="M411.6,161.6c0,35.2,1.6,62.4-33.6,62.4H100.4c-35.2,0-32.8-27.2-32.8-62.4V72
		c0-35.2,29.6-40,64.8-40H346c35.2,0,65.6,4.8,65.6,40L411.6,161.6L411.6,161.6z"/>
</g>
<path style="fill:#0D4972;" d="M411.6,146.4c0,35.2,1.6,61.6-33.6,61.6H100.4c-35.2,0-32.8-26.4-32.8-61.6V56.8
	c0-35.2,29.6-40.8,64.8-40.8H346c35.2,0,65.6,5.6,65.6,40.8V146.4z"/>
<path style="fill:#00233F;" d="M67.6,56.8c0-35.2,29.6-40.8,64.8-40.8H346c35.2,0,65.6,5.6,65.6,40.8v89.6
	c0,35.2,1.6,61.6-33.6,61.6"/>
<g>
	<circle style="fill:#04445B;" cx="198.8" cy="247.2" r="5.6"/>
	<circle style="fill:#04445B;" cx="238.8" cy="247.2" r="5.6"/>
	<circle style="fill:#04445B;" cx="279.6" cy="247.2" r="5.6"/>
</g>
<path style="fill:#36C9B4;" d="M323.6,420.8c0,15.2-12,27.2-27.2,27.2H182.8c-15.2,0-27.2-12-27.2-27.2v-2.4
	c0-15.2,12-27.2,27.2-27.2h114.4c15.2,0,27.2,12,27.2,27.2v2.4H323.6z"/>
<g>
	<path style="fill:#22B2B2;" d="M323.6,422.4v-3.2c0,15.2-12,28.8-27.2,28.8H182.8c-15.2,0-27.2-12-27.2-27.2l0.8,0.8"/>
	<path style="fill:#22B2B2;" d="M379.6,408c0-26.4-21.6-48-48-48l0,0c-26.4,0-48,21.6-48,48v24c0,26.4,21.6,48,48,48l0,0
		c26.4,0,48-21.6,48-48V408z"/>
</g>
<path style="fill:#0D4972;" d="M331.6,480L331.6,480c27.2,0,48-20.8,48-48v-24c0-27.2-20.8-48-48-48l0,0"/>
<ellipse transform="matrix(-0.6162 -0.7876 0.7876 -0.6162 264.2282 901.8784)" style="fill:#13628E;" cx="351.863" cy="386.558" rx="24" ry="10.4"/>
<g>
	<circle style="fill:#149CA3;" cx="185.2" cy="398.4" r="3.2"/>
	<circle style="fill:#149CA3;" cx="207.6" cy="398.4" r="3.2"/>
	<circle style="fill:#149CA3;" cx="230" cy="398.4" r="3.2"/>
	<circle style="fill:#149CA3;" cx="185.2" cy="410.4" r="3.2"/>
	<circle style="fill:#149CA3;" cx="207.6" cy="410.4" r="3.2"/>
	<circle style="fill:#149CA3;" cx="230" cy="410.4" r="3.2"/>
	<circle style="fill:#149CA3;" cx="185.2" cy="422.4" r="3.2"/>
	<circle style="fill:#149CA3;" cx="207.6" cy="422.4" r="3.2"/>
	<circle style="fill:#149CA3;" cx="230" cy="422.4" r="3.2"/>
	<circle style="fill:#149CA3;" cx="185.2" cy="434.4" r="3.2"/>
	<circle style="fill:#149CA3;" cx="207.6" cy="434.4" r="3.2"/>
	<circle style="fill:#149CA3;" cx="230" cy="434.4" r="3.2"/>
	<path style="fill:#149CA3;" d="M399.6,441.6c-0.8,0-1.6,0-2.4-0.8c-1.6-1.6-1.6-4,0-4.8c12-12,12-31.2,0-42.4c-1.6-1.6-1.6-4,0-4.8
		c1.6-1.6,4-1.6,4.8,0c14.4,14.4,14.4,38.4,0,52.8C401.2,440.8,400.4,441.6,399.6,441.6z"/>
	<path style="fill:#149CA3;" d="M409.2,468c-0.8,0-1.6,0-2.4-0.8c-1.6-1.6-1.6-4,0-4.8c12.8-12.8,20-30.4,20-48.8s-7.2-35.2-20-48
		c-1.6-1.6-1.6-4,0-4.8c1.6-1.6,4-1.6,4.8,0c14.4,14.4,22.4,33.6,22.4,53.6s-8,39.2-22.4,53.6C410.8,468,410,468,409.2,468z"/>
	<path style="fill:#149CA3;" d="M423.6,495.2c-0.8,0-1.6,0-2.4-0.8c-1.6-1.6-1.6-4,0-4.8c20-20,31.2-47.2,31.2-75.2
		c0-28.8-11.2-55.2-31.2-75.2c-1.6-1.6-1.6-4,0-4.8c1.6-1.6,4-1.6,4.8,0c21.6,21.6,33.6,50.4,33.6,80.8s-12,59.2-33.6,80.8
		C425.2,495.2,424.4,495.2,423.6,495.2z"/>
</g>
<g>
</g>
<g>
</g>
<g>
</g>
<g>
</g>
<g>
</g>
<g>
</g>
<g>
</g>
<g>
</g>
<g>
</g>
<g>
</g>
<g>
</g>
<g>
</g>
<g>
</g>
<g>
</g>
<g>
</g>
</svg>
