<?xml version="1.0" encoding="iso-8859-1"?>
<!-- Generator: Adobe Illustrator 19.0.0, SVG Export Plug-In . SVG Version: 6.00 Build 0)  -->
<svg version="1.1" id="Capa_1" xmlns="http://www.w3.org/2000/svg" xmlns:xlink="http://www.w3.org/1999/xlink" x="0px" y="0px"
	 viewBox="0 0 512 512" style="enable-background:new 0 0 512 512;" xml:space="preserve">
<path style="fill:#E0A39A;" d="M339.976,34.459c0-14.872-12.057-26.929-26.929-26.929l0,0c-12.969,0-23.793,9.168-26.353,21.375
	c-2.56-12.208-13.384-21.375-26.353-21.375l0,0c-14.872,0-26.929,12.057-26.929,26.929v153.777 M232.682,34.459
	c0-14.872-12.057-26.929-26.929-26.929l0,0c-14.872,0-26.929,12.057-26.929,26.929v214.012l0,0h-3.765v-80.941
	c0-33.267-26.968-60.235-60.235-60.235v230.377c0,44.911,32.38,82.929,75.294,90.236v76.563h165.647v-82.49
	c21.895-11.063,36.917-33.748,36.917-59.955l1.882-143.671V34.459c0-14.872-12.057-26.929-26.929-26.929l0,0
	c-14.872,0-26.929,12.057-26.929,26.929"/>
<g>
	<path style="fill:#F2C8BF;" d="M135.529,337.671V110.947c-6.456-2.363-13.43-3.653-20.706-3.653v230.377
		c0,44.911,32.38,82.929,75.294,90.236v76.563h20.706v-76.564C167.91,420.6,135.529,382.582,135.529,337.671z"/>
	<path style="fill:#F2C8BF;" d="M199.529,248.471V34.459c0-11.204,6.843-20.806,16.577-24.864
		c-3.187-1.328-6.684-2.065-10.353-2.065l0,0c-14.872,0-26.929,12.057-26.929,26.929v210.247
		C191.383,246.372,199.529,248.471,199.529,248.471z"/>
	<path style="fill:#F2C8BF;" d="M256,220.235l-1.882-185.777c0-11.204,6.843-20.806,16.577-24.864
		c-3.187-1.328-6.684-2.065-10.353-2.065l0,0c-14.872,0-26.929,12.057-26.929,26.929l1.882,182.012
		C247.853,218.137,256,220.235,256,220.235z"/>
	<path style="fill:#F2C8BF;" d="M308.706,222.118V34.459c0-11.204,6.843-20.806,16.577-24.864
		c-3.187-1.328-6.684-2.065-10.353-2.065l0,0C300.057,7.529,288,19.587,288,34.459v183.894
		C300.559,220.019,308.706,222.118,308.706,222.118z"/>
	<path style="fill:#F2C8BF;" d="M361.412,220.235V36.341c0-11.204,6.843-20.806,16.577-24.864
		c-3.187-1.328-6.684-2.065-10.353-2.065l0,0c-14.872,0-26.929,12.057-26.929,26.929v183.894
		C353.265,221.902,361.412,220.235,361.412,220.235z"/>
</g>
<g>
	<rect x="284.23" y="293.647" style="fill:#E6B7AF;" width="109.176" height="24.471"/>
	<rect x="208.936" y="216.466" style="fill:#E6B7AF;" width="152.466" height="20.706"/>
</g>
<rect x="116.706" y="109.176" style="fill:#FFFFFF;" width="28.23" height="58.348"/>
<path style="fill:#FEDA6B;" d="M293.647,314.353l-2.73-7.14c-13.145-34.379-45.803-57.372-82.601-58.155l-27.611-0.587
	l-3.765-37.647h-62.118v127.706c0,44.715,32.623,81.753,75.294,88.736v47.088h165.647v-51.198
	c22.226-10.317,37.647-32.821,37.647-58.938v-49.864H293.647z"/>
<g>
	<path style="fill:#FFA92C;" d="M141.176,338.529V210.824h-26.353v127.706c0,44.715,32.623,81.753,75.294,88.736v47.088h26.353
		v-47.088C173.8,420.283,141.176,383.244,141.176,338.529z"/>
	<rect x="190.113" y="429.176" style="fill:#FFA92C;" width="165.647" height="20.706"/>
	<rect x="114.819" y="212.701" style="fill:#FFA92C;" width="62.118" height="28.23"/>
	<rect x="297.412" y="316.235" style="fill:#FFA92C;" width="97.882" height="30.118"/>
</g>
<rect x="262.797" y="421.647" width="22.588" height="15.059"/>
<rect x="318.113" y="338.824" style="fill:#FFFFFF;" width="15.059" height="15.059"/>
<path d="M370.247,0c-11.315,0-21.372,5.483-27.659,13.931C336.303,5.483,326.245,0,314.929,0c-11.102,0-20.988,5.283-27.295,13.461
	C281.329,5.283,271.443,0,260.341,0s-20.988,5.283-27.295,13.461C226.741,5.283,216.855,0,205.753,0
	c-19.001,0-34.459,15.458-34.459,34.459v95.669c-12.149-18.282-32.922-30.363-56.471-30.363h-7.529v237.906
	c0,46.523,32.209,85.93,75.294,96.342V512h180.706v-84.105c23.503-12.587,39.529-37.363,39.528-65.772l1.883-327.664
	C404.706,15.458,389.249,0,370.247,0z M295.529,34.459c0-10.697,8.703-19.4,19.4-19.4c10.697,0,19.4,8.703,19.4,19.4v176.365h-38.8
	V34.459z M240.941,34.459c0-10.697,8.703-19.4,19.4-19.4s19.4,8.703,19.4,19.4v176.365h-38.8V34.459z M186.353,34.459
	c0-10.697,8.703-19.4,19.4-19.4c10.697,0,19.4,8.703,19.4,19.4v176.365h-16.211v15.059h152.471v-15.059h-10.564V34.459
	c0-10.697,8.703-19.4,19.4-19.4c10.697,0,19.4,8.703,19.4,19.4l-1.184,274.247h-90.23c-12.94-39.232-50.423-67.765-94.21-67.765
	h-17.671L186.353,34.459L186.353,34.459z M122.353,173.176h28.235v-24.471h-15.059v9.412h-13.176V115.36
	c25.508,3.664,45.176,25.663,45.176,52.17v35.765h-45.176V173.176z M348.235,496.941H197.647v-15.059h150.588V496.941z
	 M328.142,421.647h-25.083v15.059h25.083c6.961,0,13.695-0.978,20.094-2.768v32.885H197.647v-30.421
	c2.15,0.169,4.317,0.273,6.503,0.298h43.591v-15.059h-43.508c-45.149-0.502-81.881-38.17-81.881-83.971v-89.2h22.588v-15.059
	h-22.588v-15.059h45.176v22.588h-9.412V256h45.906c45.8,0,83.47,36.732,83.971,81.797v16.086h15.059v-16.169
	c-0.052-4.736-0.457-9.392-1.177-13.948h86.389l-0.198,15.059h-39.834v15.059h39.636l-0.106,8.142
	C387.765,394.901,361.018,421.647,328.142,421.647z"/>
<rect x="195.032" y="75.294" width="20.706" height="15.059"/>
<rect x="195.032" y="141.171" width="20.706" height="15.059"/>
<rect x="249.625" y="75.294" width="20.706" height="15.059"/>
<rect x="249.625" y="141.171" width="20.706" height="15.059"/>
<rect x="302.331" y="75.294" width="20.706" height="15.059"/>
<rect x="302.331" y="141.171" width="20.706" height="15.059"/>
<rect x="356.914" y="75.294" width="20.706" height="15.059"/>
<rect x="356.914" y="141.171" width="20.706" height="15.059"/>
<g>
</g>
<g>
</g>
<g>
</g>
<g>
</g>
<g>
</g>
<g>
</g>
<g>
</g>
<g>
</g>
<g>
</g>
<g>
</g>
<g>
</g>
<g>
</g>
<g>
</g>
<g>
</g>
<g>
</g>
</svg>
